<!-- icon666.com - MILLIONS vector ICONS FREE --><svg fill="none" viewBox="0 0 32 32" xmlns="http://www.w3.org/2000/svg"><path clip-rule="evenodd" d="m28 4.99999c0-.29748-.1324-.57952-.3614-.76951-.2289-.18998-.5305-.26818-.8229-.21336l-16 3c-.473.08868-.8157.50166-.8157.98287v12.53511c-.58835-.3403-1.27143-.5351-2-.5351-2.20914 0-4 1.7909-4 4s1.79086 4 4 4c2.2091 0 4-1.7909 4-4v-10.1701l14-2.625v6.3302c-.5883-.3403-1.2714-.5351-2-.5351-2.2091 0-4 1.7909-4 4s1.7909 4 4 4 4-1.7909 4-4zm-2 16.00001c0-1.1046-.8954-2-2-2s-2 .8954-2 2 .8954 2 2 2 2-.8954 2-2zm-16 3c0-1.1046-.89543-2-2-2s-2 .8954-2 2 .89543 2 2 2 2-.8954 2-2zm16-14.82993-14 2.62503v-2.96518l14-2.625z" fill="rgb(0,0,0)" fill-rule="evenodd"></path></svg>