<!-- icon666.com - MILLIONS vector ICONS FREE --><svg id="Layer_1" viewBox="0 0 512 512" xmlns="http://www.w3.org/2000/svg" data-name="Layer 1"><path d="m110.071 135.09c-2.911-15.2-13.929-25.03-28.071-25.03-6.775 0-13.7 2.28-20.635 6.785-6.858-4.3-13.868-6.565-20.445-6.565-14.053 0-25.11 9.716-28.17 24.753l-.007.034c-2.209 11.263.519 23.475 7.681 34.385 7.973 12.148 21.114 22.154 38 28.938.1.042.212.081.32.116a7.848 7.848 0 0 0 5.317 0c.1-.031.193-.066.287-.1 37.227-14.647 49.786-42.359 45.723-63.316z"></path><path d="m471.2 12.84c-6.781 0-13.711 2.279-20.643 6.784-6.852-4.306-13.862-6.564-20.447-6.564-14.052 0-25.11 9.715-28.17 24.752l-.007.038c-2.2 11.262.528 23.473 7.69 34.383 7.975 12.148 21.116 22.154 38 28.937.1.038.193.074.291.106a8.568 8.568 0 0 0 2.683.474 8.828 8.828 0 0 0 2.683-.474c.086-.028.172-.059.258-.092 37.215-14.641 49.783-42.354 45.73-63.315-2.908-15.204-13.926-25.029-28.068-25.029z"></path><path d="m147.58 267.98a30.32 30.32 0 1 0 -30.32 30.32 30.354 30.354 0 0 0 30.32-30.32z"></path><path d="m338.03 81.58a30.32 30.32 0 1 0 -30.32-30.32 30.354 30.354 0 0 0 30.32 30.32z"></path><path d="m434.176 129.7a66.545 66.545 0 0 1 -34.841-34.758 4.922 4.922 0 0 0 -4.595-2.942 4.92 4.92 0 0 0 -4.6 2.949 66.193 66.193 0 0 1 -34.84 34.774 4.989 4.989 0 0 0 -.008 9.176 66.786 66.786 0 0 1 6.039 2.988l-141.841 39.226a26.628 26.628 0 0 0 -19.49 25.567v204.582a55.588 55.588 0 1 0 10.354 32.258l-.354-166.12 193-53.254v119.6c-11-14.137-26.85-23.38-45.51-23.38a55.64 55.64 0 1 0 55.448 55.82l.062-213.596a26.674 26.674 0 0 0 -1.324-7.59c.634-.69 1.174-1.37 1.84-2.035a65.83 65.83 0 0 1 20.719-14.07 5 5 0 0 0 -.059-9.194zm-27.842 16.2c-1.546 1.545-3.03 3.163-4.409 4.8a76.355 76.355 0 0 0 -7.186 10.085 76.219 76.219 0 0 0 -26.472-26.476 76.388 76.388 0 0 0 26.477-26.474 76.495 76.495 0 0 0 26.464 26.465 76.108 76.108 0 0 0 -14.874 11.6z"></path><path d="m89.97 94.336a66.1 66.1 0 0 1 34.845 34.846 5 5 0 0 0 4.594 3.028 5 5 0 0 0 4.591-3.027 66.395 66.395 0 0 1 34.85-34.847 5 5 0 0 0 0-9.193 66.309 66.309 0 0 1 -34.845-34.843 5 5 0 0 0 -9.191 0 66.3 66.3 0 0 1 -34.84 34.843 5 5 0 0 0 0 9.193z"></path></svg>